<?xml version="1.0" encoding="UTF-8" standalone="no"?>
<!-- Created with Inkscape (http://www.inkscape.org/) -->

<svg
   width="210mm"
   height="297mm"
   viewBox="0 0 210 297"
   version="1.1"
   id="svg171"
   inkscape:version="1.2.2 (b0a8486541, 2022-12-01, custom)"
   sodipodi:docname="favicon.svg"
   xmlns:inkscape="http://www.inkscape.org/namespaces/inkscape"
   xmlns:sodipodi="http://sodipodi.sourceforge.net/DTD/sodipodi-0.dtd"
   xmlns="http://www.w3.org/2000/svg"
   xmlns:svg="http://www.w3.org/2000/svg">
  <sodipodi:namedview
     id="namedview173"
     pagecolor="#505050"
     bordercolor="#eeeeee"
     borderopacity="1"
     inkscape:showpageshadow="0"
     inkscape:pageopacity="0"
     inkscape:pagecheckerboard="0"
     inkscape:deskcolor="#505050"
     inkscape:document-units="mm"
     showgrid="false"
     inkscape:zoom="7.6969697"
     inkscape:cx="364.55906"
     inkscape:cy="504.15945"
     inkscape:window-width="1920"
     inkscape:window-height="1043"
     inkscape:window-x="1366"
     inkscape:window-y="0"
     inkscape:window-maximized="1"
     inkscape:current-layer="layer1" />
  <defs
     id="defs168" />
  <g
     inkscape:label="Capa 1"
     inkscape:groupmode="layer"
     id="layer1">
    <g
       id="g533"
       inkscape:export-filename="../359b9c62/ico.png"
       inkscape:export-xdpi="96"
       inkscape:export-ydpi="96">
      <rect
         style="fill:none;stroke-width:0.00815472"
         id="rect227"
         width="8.4666662"
         height="8.4666662"
         x="101.63013"
         y="124.74635" />
      <path
         style="fill:#00ff00;stroke-width:0.24448"
         id="path387"
         sodipodi:type="arc"
         sodipodi:cx="105.82539"
         sodipodi:cy="126.15748"
         sodipodi:rx="1.3229166"
         sodipodi:ry="1.3229166"
         sodipodi:start="0"
         sodipodi:end="6.2713443"
         sodipodi:arc-type="slice"
         d="m 107.14831,126.15748 a 1.3229166,1.3229166 0 0 1 -1.319,1.32291 1.3229166,1.3229166 0 0 1 -1.32681,-1.31508 1.3229166,1.3229166 0 0 1 1.31115,-1.3307 1.3229166,1.3229166 0 0 1 1.33457,1.3072 l -1.32283,0.0157 z" />
      <path
         style="fill:#ff8080;stroke-width:0.24448"
         id="path387-3"
         sodipodi:type="arc"
         sodipodi:cx="105.85194"
         sodipodi:cy="131.69734"
         sodipodi:rx="1.3229166"
         sodipodi:ry="1.3229166"
         sodipodi:start="0"
         sodipodi:end="6.2713443"
         sodipodi:arc-type="slice"
         d="m 107.17485,131.69734 a 1.3229166,1.3229166 0 0 1 -1.319,1.32291 1.3229166,1.3229166 0 0 1 -1.32681,-1.31508 1.3229166,1.3229166 0 0 1 1.31115,-1.33069 1.3229166,1.3229166 0 0 1 1.33457,1.3072 l -1.32282,0.0157 z" />
      <path
         style="fill:#0000ff;stroke-width:0.24448"
         id="path387-3-6"
         sodipodi:type="arc"
         sodipodi:cx="103.31547"
         sodipodi:cy="130.04327"
         sodipodi:rx="1.3229166"
         sodipodi:ry="1.3229166"
         sodipodi:start="0"
         sodipodi:end="6.2713443"
         sodipodi:arc-type="slice"
         d="m 104.63838,130.04327 a 1.3229166,1.3229166 0 0 1 -1.319,1.32291 1.3229166,1.3229166 0 0 1 -1.32681,-1.31507 1.3229166,1.3229166 0 0 1 1.31115,-1.3307 1.3229166,1.3229166 0 0 1 1.33457,1.3072 l -1.32282,0.0157 z" />
      <path
         style="fill:#d40000;stroke-width:0.24448"
         id="path387-3-6-3"
         sodipodi:type="arc"
         sodipodi:cx="103.25214"
         sodipodi:cy="127.19326"
         sodipodi:rx="1.3229166"
         sodipodi:ry="1.3229166"
         sodipodi:start="0"
         sodipodi:end="6.2713443"
         sodipodi:arc-type="slice"
         d="m 104.57505,127.19326 a 1.3229166,1.3229166 0 0 1 -1.319,1.32291 1.3229166,1.3229166 0 0 1 -1.32681,-1.31508 1.3229166,1.3229166 0 0 1 1.31115,-1.33069 1.3229166,1.3229166 0 0 1 1.33457,1.3072 l -1.32282,0.0157 z" />
      <path
         style="fill:#800080;stroke-width:0.24448"
         id="path387-3-6-7"
         sodipodi:type="arc"
         sodipodi:cx="108.50726"
         sodipodi:cy="130.44215"
         sodipodi:rx="1.3229166"
         sodipodi:ry="1.3229166"
         sodipodi:start="0"
         sodipodi:end="6.2713443"
         sodipodi:arc-type="slice"
         d="m 109.83018,130.44215 a 1.3229166,1.3229166 0 0 1 -1.319,1.32291 1.3229166,1.3229166 0 0 1 -1.32681,-1.31507 1.3229166,1.3229166 0 0 1 1.31114,-1.3307 1.3229166,1.3229166 0 0 1 1.33458,1.3072 l -1.32283,0.0157 z" />
      <path
         style="fill:#ffff00;stroke-width:0.24448"
         id="path387-3-6-5"
         sodipodi:type="arc"
         sodipodi:cx="108.5158"
         sodipodi:cy="127.102"
         sodipodi:rx="1.3229166"
         sodipodi:ry="1.3229166"
         sodipodi:start="0"
         sodipodi:end="6.2713443"
         sodipodi:arc-type="slice"
         d="m 109.83872,127.102 a 1.3229166,1.3229166 0 0 1 -1.319,1.32291 1.3229166,1.3229166 0 0 1 -1.32681,-1.31508 1.3229166,1.3229166 0 0 1 1.31114,-1.3307 1.3229166,1.3229166 0 0 1 1.33457,1.3072 l -1.32282,0.0157 z" />
    </g>
  </g>
</svg>
